<?xml version="1.0" standalone="no"?>
<!DOCTYPE svg PUBLIC "-//W3C//DTD SVG 20010904//EN"
 "http://www.w3.org/TR/2001/REC-SVG-20010904/DTD/svg10.dtd">
<svg version="1.0" xmlns="http://www.w3.org/2000/svg"
 width="1024.000000pt" height="1024.000000pt" viewBox="0 0 1024.000000 1024.000000"
 preserveAspectRatio="xMidYMid meet">

<g transform="translate(0.000000,1024.000000) scale(0.100000,-0.100000)"
fill="#000000" stroke="none">
<path d="M4830 8769 c-485 -41 -923 -164 -1352 -380 -503 -253 -896 -570
-1237 -998 -402 -505 -662 -1119 -745 -1756 -39 -299 -30 -801 20 -1070 78
-419 248 -878 449 -1210 187 -311 353 -524 600 -771 238 -238 418 -378 689
-534 389 -224 896 -405 1258 -450 47 -6 106 -13 130 -16 24 -3 57 -7 73 -10
70 -13 586 -16 734 -5 926 69 1809 534 2427 1276 418 501 705 1113 808 1718
64 377 60 906 -10 1262 -48 245 -145 570 -229 765 -96 225 -261 505 -430 731
-266 355 -627 683 -995 904 -154 92 -439 237 -566 288 -505 203 -1115 299
-1624 256z m480 -459 c451 -39 787 -133 1173 -327 323 -161 600 -358 851 -602
497 -487 801 -1075 900 -1742 47 -314 40 -760 -15 -1028 -32 -156 -96 -394
-135 -499 -55 -150 -244 -524 -332 -657 -221 -335 -449 -580 -752 -810 -182
-137 -305 -213 -516 -318 -342 -170 -661 -261 -1059 -302 -107 -10 -467 -14
-565 -5 -372 34 -550 72 -849 183 -447 165 -831 415 -1172 763 -475 487 -792
1132 -880 1794 -27 203 -30 581 -6 776 30 235 93 509 160 695 74 204 209 463
347 669 176 261 469 566 750 780 196 149 529 333 775 429 209 81 489 155 655
175 70 8 241 26 285 29 92 8 278 6 385 -3z"/>
<path d="M4925 7739 c-229 -17 -516 -79 -724 -155 -127 -47 -393 -178 -506
-249 -520 -327 -901 -813 -1092 -1395 -79 -241 -106 -437 -107 -780 -1 -258 4
-306 45 -519 57 -287 178 -592 342 -861 118 -192 333 -445 495 -581 389 -325
848 -532 1344 -604 149 -22 467 -30 618 -16 559 54 1073 268 1476 614 429 370
738 900 848 1461 77 388 57 879 -49 1230 -127 420 -334 766 -644 1077 -232
232 -423 370 -704 509 -406 200 -907 300 -1342 269z m310 -779 c32 -11 77 -31
100 -45 54 -31 133 -118 164 -179 50 -101 51 -116 51 -663 l0 -513 575 0 c556
0 576 -1 630 -21 115 -43 202 -127 247 -239 18 -43 22 -76 23 -151 0 -90 -2
-99 -37 -171 -48 -95 -139 -185 -225 -220 l-58 -23 -577 -3 -578 -2 0 -498 c0
-390 -3 -508 -14 -549 -42 -156 -163 -285 -309 -328 -65 -19 -161 -21 -230 -5
-162 36 -304 188 -337 359 -6 32 -10 250 -10 537 l0 484 -553 0 c-599 0 -620
2 -712 55 -54 32 -136 119 -164 173 -87 171 -57 368 76 493 29 28 79 62 110
77 l58 27 593 3 592 3 0 498 c0 297 4 520 10 552 31 162 148 297 305 351 71
25 196 24 270 -2z"/>
</g>
</svg>
